<?xml version="1.0" standalone="no"?>
<!DOCTYPE svg PUBLIC "-//W3C//DTD SVG 20010904//EN"
 "http://www.w3.org/TR/2001/REC-SVG-20010904/DTD/svg10.dtd">
<svg version="1.0" xmlns="http://www.w3.org/2000/svg"
 width="1365.000000pt" height="321.000000pt" viewBox="0 0 1365.000000 321.000000"
 preserveAspectRatio="xMidYMid meet">

<g transform="translate(0.000000,321.000000) scale(0.100000,-0.100000)"
fill="#000000" stroke="none">
<path d="M1145 3103 c-576 -27 -1035 -136 -1100 -263 -18 -36 -12 -70 19 -99
l22 -21 50 24 c60 29 196 72 284 91 36 8 114 28 175 44 274 77 574 105 1050
98 193 -3 359 -7 370 -9 18 -3 20 3 23 53 l3 56 -68 7 c-225 22 -593 30 -828
19z"/>
<path d="M1155 2870 c-444 -18 -852 -92 -1018 -186 -91 -50 -121 -102 -90
-154 21 -35 23 -36 73 -10 85 44 224 85 385 115 50 9 119 23 155 30 289 62
469 79 875 79 193 1 385 -3 428 -7 l77 -8 0 55 c0 30 -4 57 -8 60 -32 20 -608
37 -877 26z"/>
<path d="M1130 2649 c-254 -11 -495 -40 -700 -84 -208 -44 -375 -127 -393
-194 -15 -59 83 -140 226 -185 16 -5 17 -64 17 -1057 l0 -1051 57 73 c31 41
85 106 120 145 l63 72 0 1020 0 1020 28 10 c66 26 249 65 263 56 5 -3 9 -398
9 -902 0 -493 3 -896 7 -894 5 2 50 40 101 84 51 45 101 88 112 95 20 14 20
30 20 833 0 450 3 821 8 823 4 3 69 8 145 12 l137 8 0 -717 c0 -396 4 -716 9
-716 4 0 19 8 32 18 13 10 66 44 117 76 l92 58 0 638 c0 558 2 639 15 644 8 3
51 3 95 -1 l80 -6 0 -583 c0 -476 2 -584 13 -584 7 0 35 10 63 23 27 13 77 34
112 47 l62 22 -2 587 -3 586 -103 11 c-145 16 -582 23 -802 13z"/>
<path d="M12530 2168 c-24 -54 -34 -64 -97 -88 -47 -17 -48 -20 -61 -75 -33
-150 -534 -1372 -627 -1531 -46 -79 -104 -119 -259 -180 -59 -23 -78 -47 -55
-70 20 -19 21 -19 451 -9 257 6 330 11 339 21 18 22 -5 40 -89 68 -99 34 -146
67 -167 118 -15 38 -15 45 5 122 35 133 111 360 128 379 14 16 41 17 341 15
l326 -3 27 -80 c47 -141 98 -349 98 -401 0 -36 -6 -59 -20 -77 -21 -26 -113
-67 -153 -67 -34 -1 -107 -37 -107 -54 0 -31 38 -36 292 -37 139 0 320 -4 401
-8 167 -8 206 -5 214 17 10 25 -39 57 -112 76 -131 33 -195 84 -251 201 -41
87 -242 653 -443 1249 -84 248 -154 452 -156 455 -3 2 -14 -16 -25 -41z m62
-728 c70 -211 125 -387 122 -392 -3 -4 -131 -8 -285 -8 -261 0 -279 1 -279 18
0 16 75 217 236 630 32 80 61 141 67 139 6 -2 68 -176 139 -387z"/>
<path d="M3578 2124 c-42 -7 -113 -27 -158 -43 -314 -115 -526 -360 -611 -706
-28 -115 -31 -341 -7 -452 74 -327 332 -597 667 -698 128 -38 218 -48 369 -42
153 6 280 33 394 85 352 160 568 509 568 919 0 203 -50 372 -157 529 -147 216
-383 364 -657 413 -82 15 -315 12 -408 -5z m347 -119 c293 -61 507 -332 570
-718 20 -123 20 -356 -1 -455 -72 -348 -299 -532 -659 -534 -183 -1 -304 36
-432 133 -217 163 -349 523 -330 899 15 299 136 515 348 618 46 23 116 48 154
56 92 19 262 19 350 1z"/>
<path d="M8915 2124 c-161 -34 -306 -138 -369 -265 -44 -89 -59 -162 -54 -269
8 -175 91 -276 368 -450 342 -214 389 -252 433 -348 18 -39 21 -66 21 -162 0
-96 -3 -123 -21 -162 -32 -70 -94 -131 -166 -164 -55 -26 -73 -29 -162 -29
-91 0 -105 3 -159 30 -120 61 -192 151 -250 313 -33 93 -44 102 -103 87 l-26
-6 7 -127 c13 -226 29 -258 168 -326 115 -57 184 -71 333 -69 213 2 364 56
483 173 112 111 157 235 150 415 -4 98 -8 117 -36 175 -59 123 -152 205 -407
360 -179 109 -254 162 -312 219 -65 66 -86 110 -91 192 -12 203 122 332 345
331 140 -1 235 -72 321 -239 50 -98 72 -118 128 -111 29 3 29 4 29 68 0 81
-50 261 -81 295 -12 13 -57 35 -105 51 -73 24 -103 28 -229 30 -102 2 -166 -1
-215 -12z"/>
<path d="M5765 2120 c-55 -4 -234 -8 -397 -9 -255 -1 -299 -3 -312 -17 -21
-21 -5 -52 32 -60 153 -34 191 -50 226 -97 21 -28 21 -34 24 -760 2 -498 0
-744 -8 -769 -18 -64 -76 -97 -222 -127 -60 -13 -75 -28 -53 -58 12 -16 25
-18 142 -13 163 5 413 5 768 0 269 -5 283 -4 365 18 238 65 447 204 583 387
66 88 146 247 170 340 28 104 39 243 28 352 -46 436 -314 707 -786 794 -125
23 -398 32 -560 19z m425 -105 c102 -26 256 -106 335 -172 191 -161 291 -372
302 -638 12 -295 -75 -529 -263 -704 -84 -78 -211 -148 -319 -176 -86 -23
-254 -30 -359 -16 -155 21 -241 67 -280 150 -21 46 -21 53 -21 751 0 690 0
706 20 740 25 43 80 71 159 81 102 12 353 3 426 -16z"/>
<path d="M7373 2103 c-21 -7 -15 -41 10 -57 12 -7 56 -21 98 -30 41 -9 92 -28
112 -41 68 -46 67 -40 67 -814 0 -471 -4 -699 -11 -726 -21 -76 -83 -113 -256
-155 -79 -20 -91 -62 -20 -73 18 -3 119 0 226 5 140 8 245 8 375 0 201 -12
249 -8 254 24 3 23 -21 37 -98 53 -118 26 -192 69 -216 127 -20 49 -21 1438 0
1487 19 47 69 84 134 102 127 34 146 41 156 57 25 41 5 43 -417 44 -221 1
-408 -1 -414 -3z"/>
<path d="M9833 2092 c-24 -24 13 -50 102 -73 145 -36 179 -72 190 -202 3 -45
5 -372 3 -727 -3 -622 -4 -646 -23 -685 -31 -62 -69 -82 -232 -125 -100 -26
-88 -72 19 -73 34 -1 158 2 273 7 116 4 390 3 610 -2 220 -4 405 -7 411 -5 17
6 58 104 88 207 34 118 42 182 26 201 -25 30 -46 16 -95 -67 -58 -98 -115
-163 -166 -189 -60 -30 -165 -41 -371 -37 -172 3 -197 5 -228 23 -68 40 -70
49 -70 431 0 305 2 343 17 355 23 20 389 20 425 0 29 -15 61 -68 77 -127 13
-48 50 -87 74 -78 15 5 17 33 17 255 0 234 -1 249 -19 259 -28 14 -55 -14 -75
-75 -37 -117 -57 -125 -300 -125 -154 0 -187 3 -200 16 -14 13 -16 59 -16 349
0 183 3 341 6 350 4 9 24 25 45 35 35 18 60 20 267 20 262 0 305 -8 364 -65
27 -26 44 -57 63 -115 27 -81 43 -97 76 -80 13 8 19 21 19 47 0 44 -39 272
-51 293 -11 22 -1304 24 -1326 2z"/>
</g>
</svg>
